<?xml version="1.0" encoding="UTF-8" standalone="no"?>
<!-- Generator: Adobe Illustrator 15.0.0, SVG Export Plug-In . SVG Version: 6.00 Build 0)  -->

<svg
   xmlns:dc="http://purl.org/dc/elements/1.1/"
   xmlns:cc="http://creativecommons.org/ns#"
   xmlns:rdf="http://www.w3.org/1999/02/22-rdf-syntax-ns#"
   xmlns:svg="http://www.w3.org/2000/svg"
   xmlns="http://www.w3.org/2000/svg"
   xmlns:sodipodi="http://sodipodi.sourceforge.net/DTD/sodipodi-0.dtd"
   xmlns:inkscape="http://www.inkscape.org/namespaces/inkscape"
   version="1.1"
   id="svg2"
   sodipodi:version="0.32"
   inkscape:version="0.92.3 (2405546, 2018-03-11)"
   inkscape:output_extension="org.inkscape.output.svg.inkscape"
   sodipodi:docname="logo.svg"
   x="0px"
   y="0px"
   width="256px"
   height="256px"
   viewBox="0 0 256 256"
   enable-background="new 0 0 256 256"
   xml:space="preserve"><metadata
   id="metadata112"><rdf:RDF><cc:Work
       rdf:about=""><dc:format>image/svg+xml</dc:format><dc:type
         rdf:resource="http://purl.org/dc/dcmitype/StillImage" /><dc:title></dc:title></cc:Work></rdf:RDF></metadata><defs
   id="defs110"><filter
     id="screen"><feBlend
       mode="screen"
       in2="BackgroundImage"
       id="feBlend4790" /></filter><radialGradient
     id="SVGID_1_-3"
     cx="99.494102"
     cy="119.9448"
     r="89.312897"
     gradientTransform="matrix(0.9719,0,0,0.9719,2.7861,2.7903)"
     gradientUnits="userSpaceOnUse"><stop
       offset="0"
       style="stop-color:#FFFFFF"
       id="stop4799" /><stop
       offset="1"
       style="stop-color:#000000"
       id="stop4801" /></radialGradient><radialGradient
     id="SVGID_2_"
     cx="56.879398"
     cy="144.8867"
     r="60.916302"
     gradientTransform="matrix(0.9719,0,0,0.9719,2.7861,2.7903)"
     gradientUnits="userSpaceOnUse"><stop
       offset="0"
       style="stop-color:#FFFFFF"
       id="stop4811" /><stop
       offset="1"
       style="stop-color:#000000"
       id="stop4813" /></radialGradient><radialGradient
     id="SVGID_3_"
     cx="98.575699"
     cy="121.0352"
     r="86.684601"
     gradientTransform="matrix(0.9719,0,0,0.9719,2.7861,2.7903)"
     gradientUnits="userSpaceOnUse"><stop
       offset="0"
       style="stop-color:#FFFFFF"
       id="stop4818" /><stop
       offset="1"
       style="stop-color:#000000"
       id="stop4820" /></radialGradient><radialGradient
     id="SVGID_4_"
     cx="99.883797"
     cy="119.2158"
     r="97.816498"
     gradientTransform="matrix(0.9719,0,0,0.9719,2.7861,2.7903)"
     gradientUnits="userSpaceOnUse"><stop
       offset="0"
       style="stop-color:#FFFFFF"
       id="stop4830" /><stop
       offset="1"
       style="stop-color:#000000"
       id="stop4832" /></radialGradient><radialGradient
     id="SVGID_5_"
     cx="100.3677"
     cy="119.5103"
     r="106.8604"
     gradientTransform="matrix(0.9719,0,0,0.9719,2.7861,2.7903)"
     gradientUnits="userSpaceOnUse"><stop
       offset="0"
       style="stop-color:#FFFFFF"
       id="stop4837" /><stop
       offset="1"
       style="stop-color:#000000"
       id="stop4839" /></radialGradient><radialGradient
     id="SVGID_6_"
     cx="100.1655"
     cy="119.9766"
     r="93.073502"
     gradientTransform="matrix(0.9719,0,0,0.9719,2.7861,2.7903)"
     gradientUnits="userSpaceOnUse"><stop
       offset="0"
       style="stop-color:#FFFFFF"
       id="stop4849" /><stop
       offset="1"
       style="stop-color:#000000"
       id="stop4851" /></radialGradient><radialGradient
     id="SVGID_7_"
     cx="100.7173"
     cy="119.6938"
     r="98.705704"
     gradientTransform="matrix(0.9719,0,0,0.9719,2.7861,2.7903)"
     gradientUnits="userSpaceOnUse"><stop
       offset="0"
       style="stop-color:#FFFFFF"
       id="stop4857" /><stop
       offset="1"
       style="stop-color:#000000"
       id="stop4859" /></radialGradient><filter
     id="screen-6"><feBlend
       mode="screen"
       in2="BackgroundImage"
       id="feBlend4790-7" /></filter><radialGradient
     id="SVGID_1_-5"
     cx="99.494102"
     cy="119.9448"
     r="89.312897"
     gradientTransform="matrix(0.9719,0,0,0.9719,2.7861,2.7903)"
     gradientUnits="userSpaceOnUse"><stop
       offset="0"
       style="stop-color:#FFFFFF"
       id="stop4799-3" /><stop
       offset="1"
       style="stop-color:#000000"
       id="stop4801-5" /></radialGradient><radialGradient
     id="SVGID_2_-6"
     cx="56.879398"
     cy="144.8867"
     r="60.916302"
     gradientTransform="matrix(0.9719,0,0,0.9719,2.7861,2.7903)"
     gradientUnits="userSpaceOnUse"><stop
       offset="0"
       style="stop-color:#FFFFFF"
       id="stop4811-2" /><stop
       offset="1"
       style="stop-color:#000000"
       id="stop4813-9" /></radialGradient><radialGradient
     id="SVGID_3_-1"
     cx="98.575699"
     cy="121.0352"
     r="86.684601"
     gradientTransform="matrix(0.9719,0,0,0.9719,2.7861,2.7903)"
     gradientUnits="userSpaceOnUse"><stop
       offset="0"
       style="stop-color:#FFFFFF"
       id="stop4818-2" /><stop
       offset="1"
       style="stop-color:#000000"
       id="stop4820-7" /></radialGradient><radialGradient
     id="SVGID_4_-0"
     cx="99.883797"
     cy="119.2158"
     r="97.816498"
     gradientTransform="matrix(0.9719,0,0,0.9719,2.7861,2.7903)"
     gradientUnits="userSpaceOnUse"><stop
       offset="0"
       style="stop-color:#FFFFFF"
       id="stop4830-9" /><stop
       offset="1"
       style="stop-color:#000000"
       id="stop4832-3" /></radialGradient><radialGradient
     id="SVGID_5_-6"
     cx="100.3677"
     cy="119.5103"
     r="106.8604"
     gradientTransform="matrix(0.9719,0,0,0.9719,2.7861,2.7903)"
     gradientUnits="userSpaceOnUse"><stop
       offset="0"
       style="stop-color:#FFFFFF"
       id="stop4837-0" /><stop
       offset="1"
       style="stop-color:#000000"
       id="stop4839-6" /></radialGradient><radialGradient
     id="SVGID_6_-2"
     cx="100.1655"
     cy="119.9766"
     r="93.073502"
     gradientTransform="matrix(0.9719,0,0,0.9719,2.7861,2.7903)"
     gradientUnits="userSpaceOnUse"><stop
       offset="0"
       style="stop-color:#FFFFFF"
       id="stop4849-6" /><stop
       offset="1"
       style="stop-color:#000000"
       id="stop4851-1" /></radialGradient><radialGradient
     id="SVGID_7_-8"
     cx="100.7173"
     cy="119.6938"
     r="98.705704"
     gradientTransform="matrix(0.9719,0,0,0.9719,2.7861,2.7903)"
     gradientUnits="userSpaceOnUse"><stop
       offset="0"
       style="stop-color:#FFFFFF"
       id="stop4857-7" /><stop
       offset="1"
       style="stop-color:#000000"
       id="stop4859-9" /></radialGradient></defs><sodipodi:namedview
   pagecolor="#ffffff"
   bordercolor="#666666"
   borderopacity="1"
   objecttolerance="10"
   gridtolerance="10"
   guidetolerance="10"
   inkscape:pageopacity="0"
   inkscape:pageshadow="2"
   inkscape:window-width="1920"
   inkscape:window-height="1025"
   id="namedview108"
   showgrid="false"
   inkscape:zoom="3.296875"
   inkscape:cx="199.70793"
   inkscape:cy="140.1327"
   inkscape:window-x="0"
   inkscape:window-y="27"
   inkscape:window-maximized="1"
   inkscape:current-layer="svg2" />

<linearGradient
   id="SVGID_1_"
   gradientUnits="userSpaceOnUse"
   x1="94.9995"
   y1="1181.167"
   x2="94.9995"
   y2="1308.795"
   gradientTransform="translate(300.91943,-1162.7204)">
	<stop
   offset="0"
   style="stop-color:#FFFFFF;stop-opacity:0.85"
   id="stop82" />
	<stop
   offset="0.66"
   style="stop-color:#FFFFFF;stop-opacity:0"
   id="stop84" />
</linearGradient>





<g
   id="g5542"><path
     d="m 106.76578,14.119516 c 22.113,0 42.246,8.474 57.337,22.346 -7.396,-0.195 -14.772,4.199 -15.082,14.269 -0.621,20.356997 24.341,24.689993 10.89,65.631994 l -11.127,33.867 -30.302,-89.260994 c -0.471,-1.382 0.076,-2.167 1.775,-2.167 h 8.565 c 0.445,0 0.808,-0.38 0.808,-0.845 v -5.074 c 0,-0.466 -0.361,-0.864 -0.808,-0.846 -16.225,0.709 -32.351004,0.714 -48.381007,0 -0.443,-0.02 -0.809,0.381 -0.809,0.846 v 5.074 c 0,0.464 0.363,0.845 0.809,0.845 h 8.613003 c 1.917,0 2.454,0.639 2.905,1.874 L 104.41178,94.731509 85.680773,151.28451 54.899772,60.603516 c -0.385,-1.135 0.078,-1.798 1.175,-1.798 h 9.814 c 0.446,0 0.81,-0.379 0.81,-0.845 v -5.074 c 0,-0.465 -0.366,-0.869 -0.81,-0.846 -10.297,0.547 -20.635,0.657 -30.264,0.756 15.111,-23.276 41.330001,-38.677 71.141008,-38.677 z m 74.555,44.401 c 6.512,12.000997 10.211,25.749993 10.211,40.358993 0,32.065001 -17.815,59.974001 -44.084,74.375001 l 26.441,-74.875001 c 4.092,-11.589 7.895,-27.248996 7.432,-39.858993 z m -46.172,120.246994 c -8.875,3.156 -18.428,4.879 -28.383,4.879 -8.572004,0 -16.847004,-1.279 -24.647007,-3.647 l 26.111007,-74.834 z m -64.650007,-3.262 c -28.665001,-13.594 -48.494001,-42.797 -48.494001,-76.625001 0,-12.538 2.728,-24.44 7.616,-35.150993 z M 106.76578,6.1665165 c -51.194008,0 -92.714008,41.5199995 -92.714008,92.7149925 0,51.197001 41.52,92.716001 92.714008,92.716001 51.198,0 92.717,-41.52 92.717,-92.716001 0,-51.195993 -41.52,-92.7149925 -92.717,-92.7149925 z m 0,-5.86000002 c 54.434,0 98.577,44.14299952 98.577,98.57399252 0,54.434001 -44.144,98.576001 -98.577,98.576001 -54.431008,0 -98.5730072,-44.143 -98.5730072,-98.576001 C 8.1917728,44.449516 52.334772,0.30651648 106.76578,0.30651648 Z"
     id="Layer_x0020_1"
     style="opacity:0.77999998;fill:#ffc400;fill-opacity:1"
     inkscape:connector-curvature="0" /><g
     transform="matrix(0.55413562,0,0,0.55243953,144.84583,116.94057)"
     id="ACube"><polyline
       style="fill:#c1272d"
       points="183.184,71.213 99.319,22.795 16,71.214 16.272,71.373 16,167.578    99.863,215.998 99.864,215.795 99.864,215.998 183.729,167.578 183.454,71.214  "
       id="Outer_Cube" /><polyline
       style="opacity:0.2;fill:#ffffff"
       points="169.428,79.168 99.409,38.745 29.848,79.169 30.075,79.301    29.848,159.621 99.863,200.047 99.864,199.877 99.864,200.047 169.88,159.621 169.651,79.169  "
       id="Inner_Cube" /><g
       style="filter:url(#screen-6)"
       id="Screener"><g
         style="opacity:0.75"
         id="Right_Shine"><g
           id="g4808"
           enable-background="new    "><polygon
             style="fill:none"
             id="polygon4797"
             points="183.474,71.214 183.748,167.58 99.885,216 99.612,119.635 " /><g
             id="g4806"><radialGradient
               gradientUnits="userSpaceOnUse"
               gradientTransform="matrix(0.9719,0,0,0.9719,2.7861,2.7903)"
               r="89.312897"
               cy="119.9448"
               cx="99.494102"
               id="radialGradient5282"><stop
                 id="stop5278"
                 style="stop-color:#FFFFFF"
                 offset="0" /><stop
                 id="stop5280"
                 style="stop-color:#000000"
                 offset="1" /></radialGradient><polyline
               style="fill:url(#SVGID_1_-5)"
               id="polyline4804"
               points="183.474,71.214 99.612,119.635 99.885,216 183.748,167.58 183.474,71.214      " /></g></g></g><g
         style="opacity:0.75"
         id="Left_Shine"><g
           id="g4827"
           enable-background="new    "><radialGradient
             gradientUnits="userSpaceOnUse"
             gradientTransform="matrix(0.9719,0,0,0.9719,2.7861,2.7903)"
             r="60.916302"
             cy="144.8867"
             cx="56.879398"
             id="radialGradient5292"><stop
               id="stop5288"
               style="stop-color:#FFFFFF"
               offset="0" /><stop
               id="stop5290"
               style="stop-color:#000000"
               offset="1" /></radialGradient><polygon
             style="fill:url(#SVGID_2_-6)"
             id="polygon4816"
             points="100.136,119.633 99.863,215.998 16,167.578 16.272,71.214 " /><g
             id="g4825"><radialGradient
               gradientUnits="userSpaceOnUse"
               gradientTransform="matrix(0.9719,0,0,0.9719,2.7861,2.7903)"
               r="86.684601"
               cy="121.0352"
               cx="98.575699"
               id="radialGradient5299"><stop
                 id="stop5295"
                 style="stop-color:#FFFFFF"
                 offset="0" /><stop
                 id="stop5297"
                 style="stop-color:#000000"
                 offset="1" /></radialGradient><polyline
               style="fill:url(#SVGID_3_-1)"
               id="polyline4823"
               points="100.136,119.633 16.272,71.214 16,167.578 99.863,215.996 100.136,119.633      " /></g></g></g><g
         id="Top_Shine"><g
           id="g4846"
           enable-background="new    "><radialGradient
             gradientUnits="userSpaceOnUse"
             gradientTransform="matrix(0.9719,0,0,0.9719,2.7861,2.7903)"
             r="97.816498"
             cy="119.2158"
             cx="99.883797"
             id="radialGradient5309"><stop
               id="stop5305"
               style="stop-color:#FFFFFF"
               offset="0" /><stop
               id="stop5307"
               style="stop-color:#000000"
               offset="1" /></radialGradient><polygon
             style="fill:url(#SVGID_4_-0)"
             id="polygon4835"
             points="183.454,71.213 100.137,119.633 16.272,71.214 99.592,22.795 " /><g
             id="g4844"><radialGradient
               gradientUnits="userSpaceOnUse"
               gradientTransform="matrix(0.9719,0,0,0.9719,2.7861,2.7903)"
               r="106.8604"
               cy="119.5103"
               cx="100.3677"
               id="radialGradient5316"><stop
                 id="stop5312"
                 style="stop-color:#FFFFFF"
                 offset="0" /><stop
                 id="stop5314"
                 style="stop-color:#000000"
                 offset="1" /></radialGradient><polyline
               style="fill:url(#SVGID_5_-6)"
               id="polyline4842"
               points="183.454,71.213 99.592,22.795 16.272,71.214 100.137,119.633 183.454,71.213      " /></g></g></g><g
         id="Front_Edge"><radialGradient
           gradientUnits="userSpaceOnUse"
           gradientTransform="matrix(0.9719,0,0,0.9719,2.7861,2.7903)"
           r="93.073502"
           cy="119.9766"
           cx="100.1655"
           id="radialGradient5326"><stop
             id="stop5322"
             style="stop-color:#FFFFFF"
             offset="0" /><stop
             id="stop5324"
             style="stop-color:#000000"
             offset="1" /></radialGradient><polygon
           style="fill:url(#SVGID_6_-2)"
           id="polygon4854"
           points="101.376,117.428 98.898,117.428 98.898,215.281 100.137,215.996 101.376,215.28 " /></g><g
         id="Top_Corner"><radialGradient
           gradientUnits="userSpaceOnUse"
           gradientTransform="matrix(0.9719,0,0,0.9719,2.7861,2.7903)"
           r="98.705704"
           cy="119.6938"
           cx="100.7173"
           id="radialGradient5334"><stop
             id="stop5330"
             style="stop-color:#FFFFFF"
             offset="0" /><stop
             id="stop5332"
             style="stop-color:#000000"
             offset="1" /></radialGradient><polygon
           style="fill:url(#SVGID_7_-8)"
           id="polygon4862"
           points="99.886,116.762 18.296,69.657 16.021,70.979 99.886,119.396 183.202,70.978 180.928,69.664 " /></g></g></g></g></svg>